<?xml version="1.0" encoding="utf-8"?>
<!-- Generator: Adobe Illustrator 24.1.2, SVG Export Plug-In . SVG Version: 6.00 Build 0)  -->
<svg version="1.1" id="Capa_1" xmlns="http://www.w3.org/2000/svg" xmlns:xlink="http://www.w3.org/1999/xlink" x="0px" y="0px"
	 viewBox="0 0 100 100" style="enable-background:new 0 0 100 100;" xml:space="preserve">
<style type="text/css">
	.st0{fill:#474639;}
</style>
<g>
	<g>
		<path class="st0" d="M48.6,0C28.7,0.7,12.2,16.2,10.3,36c-0.4,4-0.2,7.8,0.5,11.5l0,0c0,0,0.1,0.4,0.3,1.3
			c0.6,2.7,1.5,5.4,2.7,7.9c4,9.5,13.2,25.3,34,42.6c1.3,1.1,3.1,1.1,4.4,0c20.7-17.2,30-33.1,34-42.6c1.2-2.5,2.1-5.1,2.7-7.9
			c0.2-0.8,0.3-1.3,0.3-1.3l0,0c0.5-2.5,0.7-5,0.7-7.6C89.9,17.4,71.3-0.8,48.6,0z M50,59.7c-10.7,0-19.4-8.7-19.4-19.4
			S39.3,21,50,21s19.4,8.7,19.4,19.4S60.7,59.7,50,59.7z"/>
	</g>
</g>
</svg>
