<?xml version="1.0" encoding="utf-8"?>
<!-- Generator: Adobe Illustrator 24.1.2, SVG Export Plug-In . SVG Version: 6.00 Build 0)  -->
<svg version="1.1" id="Layer_1" xmlns="http://www.w3.org/2000/svg" xmlns:xlink="http://www.w3.org/1999/xlink" x="0px" y="0px"
	 viewBox="0 0 512 429" style="enable-background:new 0 0 512 429;" xml:space="preserve">
<style type="text/css">
	.st0{fill:#9E0000;}
</style>
<path class="st0" d="M143.9,299.8c18.6-14.5,30.7-37.1,30.7-62.5c0-43.7-35.6-79.3-79.3-79.3s-79.3,35.6-79.3,79.3
	c0,25.4,12,48,30.7,62.5C20.4,315.5,0,345,0,381.9V414c0,8.3,6.7,15,15,15h160.7c8.3,0,15-6.7,15-15v-32.1
	C190.7,345,170.3,315.5,143.9,299.8z M46.1,237.3c0-27.2,22.1-49.3,49.3-49.3c27.2,0,49.3,22.1,49.3,49.3
	c0,27.2-22.1,49.3-49.3,49.3C68.2,286.5,46.1,264.4,46.1,237.3z M160.7,399H30v-17.1c0-36.1,29.2-65.3,65.3-65.3
	c36.1,0,65.3,29.2,65.3,65.3L160.7,399L160.7,399z"/>
<path class="st0" d="M448.8,0H256c-34.9,0-63.2,28.2-63.2,63.2v226.2c0,12.3,14.1,19.4,24,12l60.3-45.2h171.7
	c34.9,0,63.2-28.2,63.2-63.2V63.2C512,28.3,483.8,0,448.8,0z M482,193c0,18.4-14.8,33.2-33.2,33.2H272.1c-3.2,0-6.4,1.1-9,3
	l-40.3,30.2V63.2c0-18.4,14.8-33.2,33.2-33.2h192.8c18.4,0,33.2,14.8,33.2,33.2V193z"/>
<path class="st0" d="M432.7,81.6H272.1c-8.3,0-15,6.7-15,15c0,8.3,6.7,15,15,15h160.7c8.3,0,15-6.7,15-15
	C447.7,88.3,441,81.6,432.7,81.6z"/>
<path class="st0" d="M433,145.9H272.1c-8.3,0-15,6.7-15,15s6.7,15,15,15H433c8.3,0,15-6.7,15-15S441.2,145.9,433,145.9z"/>
</svg>
