<?xml version="1.0" encoding="utf-8"?>
<!-- Generator: Adobe Illustrator 24.1.2, SVG Export Plug-In . SVG Version: 6.00 Build 0)  -->
<svg version="1.1" id="Capa_1" xmlns="http://www.w3.org/2000/svg" xmlns:xlink="http://www.w3.org/1999/xlink" x="0px" y="0px"
	 viewBox="0 0 512 512" style="enable-background:new 0 0 512 512;" xml:space="preserve">
<style type="text/css">
	.st0{fill:#949081;}
</style>
<g>
	<g>
		<path class="st0" d="M404.1,383.3H198.6l-12.7-50.8h268.6L512,102.1H128.3l-20.2-81H0v30.2h84.5l83.3,333.2
			c-24.2,5.2-42.5,26.8-42.5,52.6c0,29.7,24.1,53.8,53.8,53.8s53.8-24.1,53.8-53.8c0-8.5-2-16.5-5.5-23.6h128.4
			c-3.5,7.1-5.5,15.2-5.5,23.6c0,29.7,24.1,53.8,53.8,53.8s53.8-24.1,53.8-53.8C457.8,407.4,433.7,383.3,404.1,383.3z"/>
	</g>
</g>
</svg>
