<?xml version="1.0" encoding="utf-8"?>
<!-- Generator: Adobe Illustrator 24.1.2, SVG Export Plug-In . SVG Version: 6.00 Build 0)  -->
<svg version="1.1" id="Layer_1" xmlns="http://www.w3.org/2000/svg" xmlns:xlink="http://www.w3.org/1999/xlink" x="0px" y="0px"
	 viewBox="0 0 512 512" style="enable-background:new 0 0 512 512;" xml:space="preserve">
<style type="text/css">
	.st0{fill:#919082;}
</style>
<g>
	<path class="st0" d="M256,0C114.8,0,0,114.8,0,256s114.8,256,256,256s256-114.8,256-256S397.2,0,256,0z M256,492
		C125.9,492,20,386.1,20,256S125.9,20,256,20s236,105.9,236,236S386.1,492,256,492z"/>
	<path class="st0" d="M256,60C147.9,60,60,147.9,60,256s87.9,196,196,196s196-87.9,196-196S364.1,60,256,60z M266,431.7V412
		c0-5.5-4.5-10-10-10s-10,4.5-10,10v19.7c-89.1-5-160.7-76.6-165.7-165.7H100c5.5,0,10-4.5,10-10s-4.5-10-10-10H80.3
		c5-89.1,76.6-160.7,165.7-165.7V100c0,5.5,4.5,10,10,10s10-4.5,10-10V80.3c89.1,5,160.7,76.6,165.7,165.7v20
		C426.7,355.1,355.1,426.7,266,431.7z"/>
	<path class="st0" d="M169.2,125.6c1.8,3.4,5.3,5.3,8.8,5.3c1.6,0,3.2-0.4,4.7-1.2c4.9-2.6,6.7-8.7,4.1-13.5
		c-2.6-4.9-8.7-6.7-13.5-4.1C168.4,114.7,166.6,120.8,169.2,125.6L169.2,125.6z"/>
	<path class="st0" d="M116.2,186.8L116.2,186.8c1.5,0.8,3.1,1.2,4.7,1.2c3.6,0,7-1.9,8.8-5.3c2.6-4.9,0.8-10.9-4.1-13.5
		s-10.9-0.8-13.5,4.1C109.5,178.1,111.3,184.2,116.2,186.8L116.2,186.8z"/>
	<path class="st0" d="M116.2,325.2c-4.9,2.6-6.7,8.7-4.1,13.5c1.8,3.4,5.3,5.3,8.8,5.3c1.6,0,3.2-0.4,4.7-1.2l0,0
		c4.9-2.6,6.7-8.7,4.1-13.5C127.1,324.4,121,322.6,116.2,325.2z"/>
	<path class="st0" d="M182.7,382.3c-4.9-2.6-10.9-0.8-13.5,4.1s-0.8,10.9,4.1,13.5c1.5,0.8,3.1,1.2,4.7,1.2c3.6,0,7-1.9,8.8-5.3l0,0
		C189.4,391,187.6,384.9,182.7,382.3L182.7,382.3z"/>
	<path class="st0" d="M342.5,385.9c-2.9-4.7-9.1-6.2-13.8-3.3c-4.7,2.9-6.2,9.1-3.3,13.8c1.9,3.1,5.2,4.8,8.5,4.8
		c1.8,0,3.6-0.5,5.2-1.5C344,396.7,345.4,390.6,342.5,385.9L342.5,385.9z"/>
</g>
<path class="st0" d="M256.3,69v192.6l93.5,155.8C349.8,417.4,615.7,171.6,256.3,69z M342.4,126.2c-1.9,3.1-5.1,4.8-8.5,4.8
	c-1.8,0-3.6-0.5-5.2-1.5c-4.7-2.9-6.2-9.1-3.3-13.8c2.9-4.7,9.1-6.2,13.8-3.3C344,115.3,345.4,121.4,342.4,126.2z M386.4,169.2
	c4.8-2.6,10.9-0.8,13.5,4.1c2.6,4.8,0.8,10.9-4.1,13.5c-1.5,0.8-3.1,1.2-4.7,1.2c-3.5,0-7-1.9-8.8-5.3
	C379.7,177.9,381.5,171.8,386.4,169.2z M400,338.7c-1.8,3.4-5.2,5.3-8.8,5.3c-1.6,0-3.2-0.4-4.7-1.2c-4.9-2.6-6.7-8.6-4.1-13.5
	c2.6-4.9,8.6-6.7,13.5-4.1C400.7,327.8,402.5,333.9,400,338.7z M412.5,266.2c-5.5,0-10-4.5-10-10s4.5-10,10-10h19.7v20H412.5z"/>
<path class="st0" d="M256.3,77.8c-5.5,0-10,5-10,11.2v6.7v0.4v151.4v6.7c0,6.2,4.5,11.2,10,11.2s10-5,10-11.2v-6.7v-0.4V95.7V89
	C266.3,82.8,261.9,77.8,256.3,77.8z"/>
<path class="st0" d="M349.8,417.4c-4.8,2.8-11.2,0.5-14.5-5l-3.5-6l-0.2-0.3L253,270.8l-3.5-6c-3.2-5.5-1.9-12.2,2.8-15
	c4.8-2.8,11.2-0.5,14.5,5l3.5,6l0.2,0.3l78.6,135.3l3.5,6C355.8,407.9,354.6,414.6,349.8,417.4z"/>
</svg>
