<?xml version="1.0" encoding="utf-8"?>
<!-- Generator: Adobe Illustrator 24.1.2, SVG Export Plug-In . SVG Version: 6.00 Build 0)  -->
<svg version="1.1" id="Layer_1" xmlns="http://www.w3.org/2000/svg" xmlns:xlink="http://www.w3.org/1999/xlink" x="0px" y="0px"
	 viewBox="0 0 512 512" style="enable-background:new 0 0 512 512;" xml:space="preserve">
<style type="text/css">
	.st0{fill:#919082;}
</style>
<g>
	<path class="st0" d="M256,0C114.8,0,0,114.8,0,256s114.8,256,256,256s256-114.8,256-256S397.2,0,256,0z M256,492
		C125.9,492,20,386.1,20,256S125.9,20,256,20s236,105.9,236,236S386.1,492,256,492z"/>
	<path class="st0" d="M256,60C147.9,60,60,147.9,60,256s87.9,196,196,196s196-87.9,196-196S364.1,60,256,60z M266,431.7h-20
		c-89.1-5-160.7-76.6-165.7-165.7v-20c5-89.1,76.6-160.7,165.7-165.7V100c0,5.5,4.5,10,10,10s10-4.5,10-10V80.3
		c89.1,5,160.7,76.6,165.7,165.7v20C426.7,355.1,355.1,426.7,266,431.7z"/>
	<path class="st0" d="M169.2,125.6c1.8,3.4,5.3,5.3,8.8,5.3c1.6,0,3.2-0.4,4.7-1.2c4.9-2.6,6.7-8.7,4.1-13.5
		c-2.6-4.9-8.7-6.7-13.5-4.1C168.4,114.7,166.6,120.8,169.2,125.6L169.2,125.6z"/>
	<path class="st0" d="M116.2,186.8L116.2,186.8c1.5,0.8,3.1,1.2,4.7,1.2c3.6,0,7-1.9,8.8-5.3c2.6-4.9,0.8-10.9-4.1-13.5
		s-10.9-0.8-13.5,4.1C109.5,178.1,111.3,184.2,116.2,186.8L116.2,186.8z"/>
</g>
<path class="st0" d="M256.3,74.5v187.1L101.6,158.9C83.5,187.2,73,220.9,73,257c0,100.8,81.7,182.5,182.5,182.5S438,357.8,438,257
	C438,156.4,356.7,74.9,256.3,74.5z M325.4,115.7c2.9-4.7,9.1-6.2,13.8-3.3c4.8,2.9,6.2,9,3.2,13.8c-1.9,3.1-5.1,4.8-8.5,4.8
	c-1.8,0-3.6-0.5-5.2-1.5C324,126.6,322.5,120.4,325.4,115.7z M100.3,266l-19.7-0.3l0.3-20l19.7,0.3c5.5,0.1,9.9,4.6,9.9,10.1
	C110.3,261.7,105.8,266.1,100.3,266z M125.6,342.8c-1.5,0.8-3.1,1.2-4.7,1.2c-3.5,0-7-1.9-8.8-5.3c-2.6-4.8-0.8-10.9,4.1-13.5
	c4.8-2.6,10.9-0.8,13.5,4.1C132.3,334.1,130.5,340.2,125.6,342.8z M186.8,395.8c-1.8,3.4-5.2,5.3-8.8,5.3c-1.6,0-3.2-0.4-4.7-1.2
	c-4.9-2.6-6.7-8.6-4.1-13.5c2.6-4.9,8.6-6.7,13.5-4.1C187.6,384.9,189.4,391,186.8,395.8z M266.2,431.7l-20-0.3l0.3-19.7
	c0.1-5.5,4.6-9.9,10.1-9.9c5.5,0.1,9.9,4.6,9.9,10.1L266.2,431.7z M339.1,399.7c-1.6,1-3.4,1.5-5.2,1.5c-3.3,0-6.6-1.7-8.5-4.8
	c-2.9-4.7-1.4-10.9,3.3-13.8s10.9-1.4,13.8,3.3C345.4,390.6,344,396.7,339.1,399.7z M386.4,169.2c4.8-2.6,10.9-0.8,13.5,4.1
	c2.6,4.8,0.8,10.9-4.1,13.5c-1.5,0.8-3.1,1.2-4.7,1.2c-3.5,0-7-1.9-8.8-5.3C379.7,177.9,381.5,171.8,386.4,169.2z M400,338.7
	c-1.8,3.4-5.2,5.3-8.8,5.3c-1.6,0-3.2-0.4-4.7-1.2c-4.9-2.6-6.7-8.6-4.1-13.5c2.6-4.9,8.6-6.7,13.5-4.1
	C400.7,327.8,402.5,333.9,400,338.7z M411.6,266.4c-5.5,0-10-4.5-10-10s4.5-10,10-10h19.7v20H411.6z"/>
<path class="st0" d="M256.3,77.8c-5.5,0-10,5-10,11.2v6.7v0.4v151.4v6.7c0,6.2,4.5,11.2,10,11.2s10-5,10-11.2v-6.7v-0.4V95.7V89
	C266.3,82.8,261.9,77.8,256.3,77.8z"/>
<path class="st0" d="M100.8,178.5l6,3.4l135.8,77.7l0.3,0.2l6,3.4c5.5,3.2,12.3,1.9,15-2.9c2.7-4.8,0.4-11.2-5.1-14.4l-6-3.4
	l-135.9-77.7l-0.3-0.2l-6-3.4c-5.5-3.2-12.3-1.9-15,2.9C92.9,168.9,95.2,175.3,100.8,178.5z"/>
</svg>
