<?xml version="1.0" encoding="utf-8"?>
<!-- Generator: Adobe Illustrator 24.1.2, SVG Export Plug-In . SVG Version: 6.00 Build 0)  -->
<svg version="1.1" id="Layer_1" xmlns="http://www.w3.org/2000/svg" xmlns:xlink="http://www.w3.org/1999/xlink" x="0px" y="0px"
	 viewBox="0 0 512 512" style="enable-background:new 0 0 512 512;" xml:space="preserve">
<style type="text/css">
	.st0{fill:#D96A6A;}
</style>
<path class="st0" d="M384,0H128C79.5,0,40,39.5,40,88v256c0,48.5,39.5,88,88,88h70.9l43.3,72.2c6.2,10.3,21.2,10.4,27.4,0l43.3-72.2
	H384c48.5,0,88-39.5,88-88V88C472,39.5,432.5,0,384,0z M390.9,303.7L357,337.7c-9.5,9.5-22.6,14.3-38.4,14.3
	c-99.6,0-250-178.5-187.9-240.6l33.9-33.9c6.2-6.3,16.4-6.3,22.6,0l49.7,32.7c6.3,6.3,6.3,16.4,0,22.6l-52.1,59.2
	c7.7,18.3,75.1,88.3,93.5,96l52.1-59.2c6.3-6.3,16.4-6.2,22.6,0l37.8,52.4C397.2,287.4,397.2,297.5,390.9,303.7z"/>
</svg>
