<?xml version="1.0" encoding="utf-8"?>
<!-- Generator: Adobe Illustrator 24.1.2, SVG Export Plug-In . SVG Version: 6.00 Build 0)  -->
<svg version="1.1" id="Capa_1" xmlns="http://www.w3.org/2000/svg" xmlns:xlink="http://www.w3.org/1999/xlink" x="0px" y="0px"
	 viewBox="0 0 330 330" style="enable-background:new 0 0 330 330;" xml:space="preserve">
<style type="text/css">
	.st0{fill:#949182;}
</style>
<g>
	<path class="st0" d="M35,270h45v45c0,8.3,6.7,15,15,15h200c8.3,0,15-6.7,15-15V75c0-8.3-6.7-15-15-15h-45V15c0-8.3-6.7-15-15-15H35
		c-8.3,0-15,6.7-15,15v240C20,263.3,26.7,270,35,270z M282,304H108V86h174V304z M46,26h178v34H95c-8.3,0-15,6.7-15,15v169H46V26z"/>
	<path class="st0" d="M155,122c-8.3,0-15,4.7-15,13s6.7,13,15,13h80c8.3,0,15-4.7,15-13s-6.7-13-15-13H155z"/>
	<path class="st0" d="M235,182h-80c-8.3,0-15,4.7-15,13s6.7,13,15,13h80c8.3,0,15-4.7,15-13S243.3,182,235,182z"/>
	<path class="st0" d="M235,242h-80c-8.3,0-15,4.7-15,13s6.7,13,15,13h80c8.3,0,15-4.7,15-13S243.3,242,235,242z"/>
</g>
</svg>
