<?xml version="1.0" encoding="utf-8"?>
<!-- Generator: Adobe Illustrator 24.1.2, SVG Export Plug-In . SVG Version: 6.00 Build 0)  -->
<svg version="1.1" id="Layer_1" xmlns="http://www.w3.org/2000/svg" xmlns:xlink="http://www.w3.org/1999/xlink" x="0px" y="0px"
	 viewBox="0 0 512 512" style="enable-background:new 0 0 512 512;" xml:space="preserve">
<style type="text/css">
	.st0{fill:#9E0000;}
</style>
<path class="st0" d="M475,102.8L378.2,6c-3.9-3.9-9-6-14.5-6H98C61,0,31,30,31,67V445c0,36.9,30,67,67,67H414c36.9,0,67-30,67-67
	V117.3C481,111.8,478.9,106.7,475,102.8z M381,51.2l48.8,48.8H381V51.2z M414,482H98c-20.4,0-37-16.6-37-37V67c0-20.4,16.6-37,37-37
	h253v85c0,8.3,6.7,15,15,15h85v315C451,465.4,434.4,482,414,482z"/>
<path class="st0" d="M389.2,215.7H125.4c-10,0-18.2,8.1-18.2,18.2v185.5c0,10,8.1,18.2,18.2,18.2h263.8c10,0,18.2-8.1,18.2-18.2
	V233.9C407.4,223.9,399.2,215.7,389.2,215.7z M203.3,309.5h174v34.3h-174V309.5z M377.4,279.5h-174v-33.8h174V279.5z M137.2,245.7
	h36.1v161.9h-36.1V245.7z M203.3,407.6v-33.8h174v33.8H203.3z"/>
</svg>
