<?xml version="1.0" encoding="utf-8"?>
<!-- Generator: Adobe Illustrator 24.1.2, SVG Export Plug-In . SVG Version: 6.00 Build 0)  -->
<svg version="1.1" id="Capa_1" xmlns="http://www.w3.org/2000/svg" xmlns:xlink="http://www.w3.org/1999/xlink" x="0px" y="0px"
	 viewBox="0 0 512 512" style="enable-background:new 0 0 512 512;" xml:space="preserve">
<style type="text/css">
	.st0{fill:#474334;}
</style>
<g>
	<g>
		<path class="st0" d="M482.9,93.7H29.1c-16,0-29.1,13-29.1,29.1v266.4c0,16,13,29.1,29.1,29.1h453.8c16,0,29.1-13,29.1-29.1V122.8
			C511.9,106.7,498.9,93.7,482.9,93.7z M320,154.8c0-4,3.2-7.2,7.2-7.2h29.6c4,0,7.2,3.2,7.2,7.2v29.1c0,4-3.2,7.2-7.2,7.2h-29.6
			c-4,0-7.2-3.2-7.2-7.2V154.8z M284,233.8h29.6c4,0,7.2,3.2,7.2,7.2v29.1c0,4-3.2,7.2-7.2,7.2H284c-4,0-7.2-3.2-7.2-7.2V241
			C276.8,237.1,280.1,233.8,284,233.8z M234,154.8c0-4,3.2-7.2,7.2-7.2h29.6c4,0,7.2,3.2,7.2,7.2v29.1c0,4-3.2,7.2-7.2,7.2h-29.6
			c-4,0-7.2-3.2-7.2-7.2V154.8L234,154.8z M197.9,233.8h29.6c4,0,7.2,3.2,7.2,7.2v29.1c0,4-3.2,7.2-7.2,7.2h-29.6
			c-4,0-7.2-3.2-7.2-7.2V241C190.7,237.1,194,233.8,197.9,233.8z M147.9,154.8c0-4,3.2-7.2,7.2-7.2h29.6c4,0,7.2,3.2,7.2,7.2v29.1
			c0,4-3.2,7.2-7.2,7.2h-29.6c-4,0-7.2-3.2-7.2-7.2V154.8z M61.4,154.8c0-4,3.2-7.2,7.2-7.2h29.6c4,0,7.2,3.2,7.2,7.2v29.1
			c0,4-3.2,7.2-7.2,7.2H68.6c-4,0-7.2-3.2-7.2-7.2L61.4,154.8z M105.5,357.2c0,4-3.2,7.2-7.2,7.2H68.6c-4,0-7.2-3.2-7.2-7.2v-29.1
			c0-4,3.2-7.2,7.2-7.2h29.6c4,0,7.2,3.2,7.2,7.2L105.5,357.2z M141,277.3h-29.6c-4,0-7.2-3.2-7.2-7.2V241c0-4,3.2-7.2,7.2-7.2H141
			c4,0,7.2,3.2,7.2,7.2v29.1C148.2,274.1,145,277.3,141,277.3z M364.1,357.2c0,4-3.2,7.2-7.2,7.2H348h-20.6H271h-29.6h-86.1
			c-4,0-7.2-3.2-7.2-7.2v-29.1c0-4,3.2-7.2,7.2-7.2h86.1H271h56.4H348h8.9c4,0,7.2,3.2,7.2,7.2V357.2z M399.6,277.3H370
			c-4,0-7.2-3.2-7.2-7.2V241c0-4,3.2-7.2,7.2-7.2h29.6c4,0,7.2,3.2,7.2,7.2v29.1C406.9,274.1,403.6,277.3,399.6,277.3z M450.6,357.2
			c0,4-3.2,7.2-7.2,7.2h-29.6c-4,0-7.2-3.2-7.2-7.2v-29.1c0-4,3.2-7.2,7.2-7.2h29.6c4,0,7.2,3.2,7.2,7.2V357.2z M450.6,183.9
			c0,4-3.2,7.2-7.2,7.2h-29.6c-4,0-7.2-3.2-7.2-7.2v-29.1c0-4,3.2-7.2,7.2-7.2h29.6c4,0,7.2,3.2,7.2,7.2V183.9z"/>
	</g>
</g>
</svg>
