<?xml version="1.0" encoding="utf-8"?>
<!-- Generator: Adobe Illustrator 24.1.2, SVG Export Plug-In . SVG Version: 6.00 Build 0)  -->
<svg version="1.1" id="Layer_1" xmlns="http://www.w3.org/2000/svg" xmlns:xlink="http://www.w3.org/1999/xlink" x="0px" y="0px"
	 viewBox="0 0 485 485" style="enable-background:new 0 0 485 485;" xml:space="preserve">
<style type="text/css">
	.st0{fill:#FFFFFF;}
</style>
<path class="st0" d="M312.9,237.2l10.6,44.9l10.9,50.6l-50.6-10.9l-44.9-10.6L117.7,190.1c-8.9,19-14,40.2-14,62.6
	c0,81.3,65.9,147.3,147.3,147.3c81.3,0,147.3-65.9,147.3-147.3s-65.9-147.3-147.3-147.3c-20.6,0-40.2,4.3-58,11.9L312.9,237.2
	C312.9,237.2,312.9,237.2,312.9,237.2z"/>
<path class="st0" d="M315.2,279.1l-7.9-34.7c-27.2,12.5-48.7,34-61.2,61.2l34.7,7.9C288.2,298.8,300.5,286.5,315.2,279.1z"/>
<path class="st0" d="M193,117.3L160.7,85c-30.1,18.6-55.4,43.9-74,74l31.1,31.1C133.1,157.6,159.9,131.6,193,117.3z"/>
<path class="st0" d="M0,0v485h485V0H0z M455,455H30V30h425V455z"/>
</svg>
