<?xml version="1.0" encoding="utf-8"?>
<!-- Generator: Adobe Illustrator 24.1.2, SVG Export Plug-In . SVG Version: 6.00 Build 0)  -->
<svg version="1.1" id="Capa_1" xmlns="http://www.w3.org/2000/svg" xmlns:xlink="http://www.w3.org/1999/xlink" x="0px" y="0px"
	 viewBox="0 0 100 100" style="enable-background:new 0 0 100 100;" xml:space="preserve">
<style type="text/css">
	.st0{fill:#ffffff;}
</style>
<g>
	<g>
		<path class="st0" d="M50.5,23.9C67.4,24,78,23,79.4,41.7h20.5C99.9,12.7,74.7,8.8,50,8.8c-24.7,0-49.9,3.9-49.9,32.8h20.4
			C22.1,22.6,33.8,23.7,50.5,23.9z"/>
		<path class="st0" d="M10.3,51c5,0,9.2,0.3,10.1-4.6c0.1-0.7,0.2-1.4,0.2-2.3h-0.2H0C0,51.4,4.6,51,10.3,51z"/>
		<path class="st0" d="M79.5,44h-0.2c0,0.9,0.1,1.6,0.2,2.3c1,4.5,5.1,4.3,10.1,4.3c5.7,0,10.3,0.4,10.3-6.6L79.5,44z"/>
		<path class="st0" d="M69.5,39.1v-2.9c0-1.3-1.5-1.4-3.4-1.4h-3c-1.8,0-3.3,0.1-3.3,1.4v2.5v1.9H38.4v-1.9v-2.5
			c0-1.3-1.5-1.4-3.3-1.4h-3c-1.8,0-3.3,0.1-3.3,1.4v2.9v2.5C23.8,46.7,7.8,68.2,7.2,70.8l0,17.4c0,1.6,1.3,2.9,2.9,2.9H88
			c1.6,0,2.9-1.3,2.9-2.9V70.7c-0.6-2.5-16.5-24.1-21.4-29.2V39.1z M37.3,73.2c-1.6,0-2.8-1.3-2.8-2.8s1.3-2.8,2.8-2.8
			c1.6,0,2.8,1.3,2.8,2.8S38.9,73.2,37.3,73.2z M37.3,63.4c-1.6,0-2.8-1.3-2.8-2.8s1.3-2.8,2.8-2.8c1.6,0,2.8,1.3,2.8,2.8
			S38.9,63.4,37.3,63.4z M37.3,53.7c-1.6,0-2.8-1.3-2.8-2.8c0-1.6,1.3-2.8,2.8-2.8c1.6,0,2.8,1.3,2.8,2.8
			C40.1,52.5,38.9,53.7,37.3,53.7z M49,73.2c-1.6,0-2.8-1.3-2.8-2.8s1.3-2.8,2.8-2.8c1.6,0,2.8,1.3,2.8,2.8S50.5,73.2,49,73.2z
			 M49,63.4c-1.6,0-2.8-1.3-2.8-2.8s1.3-2.8,2.8-2.8c1.6,0,2.8,1.3,2.8,2.8S50.5,63.4,49,63.4z M49,53.7c-1.6,0-2.8-1.3-2.8-2.8
			c0-1.6,1.3-2.8,2.8-2.8c1.6,0,2.8,1.3,2.8,2.8C51.8,52.5,50.5,53.7,49,53.7z M60.6,73.2c-1.6,0-2.8-1.3-2.8-2.8s1.3-2.8,2.8-2.8
			s2.8,1.3,2.8,2.8S62.2,73.2,60.6,73.2z M60.6,63.4c-1.6,0-2.8-1.3-2.8-2.8s1.3-2.8,2.8-2.8s2.8,1.3,2.8,2.8S62.2,63.4,60.6,63.4z
			 M60.6,53.7c-1.6,0-2.8-1.3-2.8-2.8c0-1.6,1.3-2.8,2.8-2.8s2.8,1.3,2.8,2.8C63.5,52.5,62.2,53.7,60.6,53.7z"/>
	</g>
</g>
</svg>
